HIERARCHY
ROOT Hip
{
	OFFSET	0.0000	0.0000	0.0000
	CHANNELS 6 Xposition Yposition Zposition Xrotation Yrotation Zrotation
	JOINT LowerSpine
	{
		OFFSET	0.0000	8.3155	-4.4999
		CHANNELS 3 Xrotation Yrotation Zrotation
		JOINT MiddleSpine
		{
			OFFSET	0.0000	7.5885	0.3964
			CHANNELS 3 Xrotation Yrotation Zrotation
			JOINT Chest
			{
				OFFSET	0.0000	9.3899	-2.0901
				CHANNELS 3 Xrotation Yrotation Zrotation
				JOINT Neck
				{
					OFFSET	0.0000	21.1598	-0.4401
					CHANNELS 3 Xrotation Yrotation Zrotation
					JOINT Head
					{
						OFFSET	0.0000	11.9492	3.2502
						CHANNELS 3 Xrotation Yrotation Zrotation
						End Site
						{
							OFFSET	0.0001	16.6961	0.4984
						}
					}
				}
				JOINT LClavicle
				{
					OFFSET	2.1363	20.4203	6.9961
					CHANNELS 3 Xrotation Yrotation Zrotation
					JOINT LShoulder
					{
						OFFSET	12.4803	2.9290	-4.7394
						CHANNELS 3 Xrotation Yrotation Zrotation
						JOINT LForearm
						{
							OFFSET	26.5107	-0.0942	-0.2297
							CHANNELS 3 Xrotation Yrotation Zrotation
							JOINT LHand
							{
								OFFSET	22.1155	0.0642	-0.1324
								CHANNELS 3 Xrotation Yrotation Zrotation
								JOINT LFinger1
								{
									OFFSET	8.5713	0.7496	2.3806
									CHANNELS 3 Xrotation Yrotation Zrotation
									JOINT LFinger11
									{
										OFFSET	3.2061	-0.7818	0.5649
										CHANNELS 3 Xrotation Yrotation Zrotation
										JOINT LFinger12
										{
											OFFSET	2.1887	-0.5340	0.3858
											CHANNELS 3 Xrotation Yrotation Zrotation
											End Site
											{
												OFFSET	1.5575	-0.4649	0.2526
											}
										}
									}
								}
								JOINT LFinger2
								{
									OFFSET	8.6993	0.8657	0.2073
									CHANNELS 3 Xrotation Yrotation Zrotation
									JOINT LFinger21
									{
										OFFSET	3.9642	0.0111	-0.0234
										CHANNELS 3 Xrotation Yrotation Zrotation
										JOINT LFinger22
										{
											OFFSET	2.1972	0.0067	-0.0134
											CHANNELS 3 Xrotation Yrotation Zrotation
											End Site
											{
												OFFSET	1.9736	-0.1394	0.0027
											}
										}
									}
								}
								JOINT LFinger3
								{
									OFFSET	8.2443	0.5776	-1.9504
									CHANNELS 3 Xrotation Yrotation Zrotation
									JOINT LFinger31
									{
										OFFSET	3.5971	-0.1821	-0.2252
										CHANNELS 3 Xrotation Yrotation Zrotation
										JOINT LFinger32
										{
											OFFSET	2.0497	-0.1031	-0.1288
											CHANNELS 3 Xrotation Yrotation Zrotation
											End Site
											{
												OFFSET	1.8124	-0.2228	-0.0857
											}
										}
									}
								}
								JOINT LFinger4
								{
									OFFSET	7.6504	-0.5814	-3.3685
									CHANNELS 3 Xrotation Yrotation Zrotation
									JOINT LFinger41
									{
										OFFSET	2.2125	-0.4614	-0.6108
										CHANNELS 3 Xrotation Yrotation Zrotation
										JOINT LFinger42
										{
											OFFSET	1.6225	-0.3379	-0.4481
											CHANNELS 3 Xrotation Yrotation Zrotation
											End Site
											{
												OFFSET	1.4401	-0.3957	-0.3304
											}
										}
									}
								}
								JOINT LFinger0
								{
									OFFSET	1.7730	-1.3420	1.3441
									CHANNELS 3 Xrotation Yrotation Zrotation
									JOINT LFinger01
									{
										OFFSET	3.3012	-1.0843	2.4890
										CHANNELS 3 Xrotation Yrotation Zrotation
										JOINT LFinger02
										{
											OFFSET	2.1738	-0.7778	1.5662
											CHANNELS 3 Xrotation Yrotation Zrotation
											End Site
											{
												OFFSET	1.5985	-0.5503	1.0946
											}
										}
									}
								}
							}
						}
					}
				}
				JOINT RClavicle
				{
					OFFSET	-2.1363	20.4203	6.9961
					CHANNELS 3 Xrotation Yrotation Zrotation
					JOINT RShoulder
					{
						OFFSET	-12.4825	2.9295	-4.7402
						CHANNELS 3 Xrotation Yrotation Zrotation
						JOINT RForearm
						{
							OFFSET	-26.5107	-0.0941	-0.2297
							CHANNELS 3 Xrotation Yrotation Zrotation
							JOINT RHand
							{
								OFFSET	-22.1155	0.0642	-0.1324
								CHANNELS 3 Xrotation Yrotation Zrotation
								JOINT RFinger1
								{
									OFFSET	-8.5713	0.7496	2.3806
									CHANNELS 3 Xrotation Yrotation Zrotation
									JOINT RFinger11
									{
										OFFSET	-3.2061	-0.7818	0.5649
										CHANNELS 3 Xrotation Yrotation Zrotation
										JOINT RFinger12
										{
											OFFSET	-2.1887	-0.5340	0.3858
											CHANNELS 3 Xrotation Yrotation Zrotation
											End Site
											{
												OFFSET	-1.5575	-0.4649	0.2526
											}
										}
									}
								}
								JOINT RFinger2
								{
									OFFSET	-8.6993	0.8657	0.2073
									CHANNELS 3 Xrotation Yrotation Zrotation
									JOINT RFinger21
									{
										OFFSET	-3.9642	0.0111	-0.0234
										CHANNELS 3 Xrotation Yrotation Zrotation
										JOINT RFinger22
										{
											OFFSET	-2.1972	0.0067	-0.0134
											CHANNELS 3 Xrotation Yrotation Zrotation
											End Site
											{
												OFFSET	-1.9736	-0.1394	0.0027
											}
										}
									}
								}
								JOINT RFinger3
								{
									OFFSET	-8.2443	0.5776	-1.9504
									CHANNELS 3 Xrotation Yrotation Zrotation
									JOINT RFinger31
									{
										OFFSET	-3.5971	-0.1821	-0.2252
										CHANNELS 3 Xrotation Yrotation Zrotation
										JOINT RFinger32
										{
											OFFSET	-2.0497	-0.1031	-0.1288
											CHANNELS 3 Xrotation Yrotation Zrotation
											End Site
											{
												OFFSET	-1.8124	-0.2228	-0.0857
											}
										}
									}
								}
								JOINT RFinger4
								{
									OFFSET	-7.6504	-0.5814	-3.3685
									CHANNELS 3 Xrotation Yrotation Zrotation
									JOINT RFinger41
									{
										OFFSET	-2.2125	-0.4614	-0.6108
										CHANNELS 3 Xrotation Yrotation Zrotation
										JOINT RFinger42
										{
											OFFSET	-1.6225	-0.3379	-0.4481
											CHANNELS 3 Xrotation Yrotation Zrotation
											End Site
											{
												OFFSET	-1.4401	-0.3957	-0.3304
											}
										}
									}
								}
								JOINT RFinger0
								{
									OFFSET	-1.7730	-1.3420	1.3441
									CHANNELS 3 Xrotation Yrotation Zrotation
									JOINT RFinger01
									{
										OFFSET	-3.3012	-1.0843	2.4890
										CHANNELS 3 Xrotation Yrotation Zrotation
										JOINT RFinger02
										{
											OFFSET	-2.1738	-0.7778	1.5662
											CHANNELS 3 Xrotation Yrotation Zrotation
											End Site
											{
												OFFSET	-1.5985	-0.5503	1.0946
											}
										}
									}
								}
							}
						}
					}
				}
			}
		}
	}
	JOINT RThigh
	{
		OFFSET	-8.8955	3.7588	-0.7333
		CHANNELS 3 Xrotation Yrotation Zrotation
		JOINT RShin
		{
			OFFSET	-0.7118	-38.6915	0.0000
			CHANNELS 3 Xrotation Yrotation Zrotation
			JOINT RFoot
			{
				OFFSET	0.0000	-37.9926	0.0000
				CHANNELS 3 Xrotation Yrotation Zrotation
				JOINT RToe
				{
					OFFSET	0.0000	-4.1757	8.7320
					CHANNELS 3 Xrotation Yrotation Zrotation
					End Site
					{
						OFFSET	0.0000	0.0000	5.8580
					}
				}
			}
		}
	}
	JOINT LThigh
	{
		OFFSET	8.8954	3.7591	-0.7333
		CHANNELS 3 Xrotation Yrotation Zrotation
		JOINT LShin
		{
			OFFSET	0.7119	-38.6917	0.0000
			CHANNELS 3 Xrotation Yrotation Zrotation
			JOINT LFoot
			{
				OFFSET	0.0000	-37.9926	0.0000
				CHANNELS 3 Xrotation Yrotation Zrotation
				JOINT LToe
				{
					OFFSET	0.0000	-4.1757	8.7320
					CHANNELS 3 Xrotation Yrotation Zrotation
					End Site
					{
						OFFSET	0.0000	0.0000	5.8580
					}
				}
			}
		}
	}
}
MOTION
Frames:	4
Frame Time: 0.0333333000
	0.0000	79.2697	2.8200	0.000000	0.000000	0.000000	0.000000	0.000000	0.000000	0.000000	0.000000	0.000000	0.000000	0.000000	0.000000	0.000000	0.000000	0.000000	0.000000	0.000000	0.000000	0.000000	0.000000	0.000000	0.000000	0.000000	0.000000	0.000000	0.000000	0.000000	0.000000	0.000000	0.000000	0.000000	0.000000	0.000000	0.000000	0.000000	0.000000	0.000000	0.000000	0.000000	0.000000	0.000000	0.000000	0.000000	0.000000	0.000000	0.000000	0.000000	0.000000	0.000000	0.000000	0.000000	0.000000	0.000000	0.000000	0.000000	0.000000	0.000000	0.000000	0.000000	0.000000	0.000000	0.000000	0.000000	0.000000	0.000000	0.000000	0.000000	0.000000	0.000000	0.000000	0.000000	0.000000	0.000000	0.000000	0.000000	0.000000	0.000000	0.000000	0.000000	0.000000	0.000000	0.000000	0.000000	0.000000	0.000000	0.000000	0.000000	0.000000	0.000000	0.000000	0.000000	0.000000	0.000000	0.000000	0.000000	0.000000	0.000000	0.000000	0.000000	0.000000	0.000000	0.000000	0.000000	0.000000	0.000000	0.000000	0.000000	0.000000	0.000000	0.000000	0.000000	0.000000	0.000000	0.000000	0.000000	0.000000	0.000000	0.000000	0.000000	0.000000	0.000000	0.000000	0.000000	0.000000	0.000000	0.000000	0.000000	0.000000	0.000000	0.000000	0.000000	0.000000	0.000000	0.000000	0.000000	0.000000	0.000000	0.000000	0.000000	0.000000	0.000000	0.000000	0.000000	0.000000	0.000000	0.000000	0.000000	0.000000	0.000000	0.000000	0.000000	0.000000	0.000000	0.000000	0.000000	0.000000
	1.9603	78.8084	16.0486	-1.228235	-11.869430	-0.484370	0.000000	0.000000	0.000000	2.659200	0.337335	0.134684	8.861691	1.145999	0.387131	0.000000	0.000000	0.000000	0.000000	0.000000	0.000000	0.000000	0.000000	-11.532120	71.136300	-61.151520	10.370720	43.329740	-48.272420	-0.592601	0.000000	0.000000	0.000000	0.000000	0.000000	0.000000	0.000000	0.000000	0.000000	0.000000	0.000000	0.000000	0.000000	0.000000	0.000000	0.000000	0.000000	0.000000	0.000000	0.000000	0.000000	0.000000	0.000000	0.000000	0.000000	0.000000	0.000000	0.000000	0.000000	0.000000	0.000000	0.000000	0.000000	0.000000	0.000000	0.000000	0.000000	0.000000	0.000000	0.000000	0.000000	0.000000	0.000000	0.000000	0.000000	0.000000	0.000000	0.000000	0.000000	0.000000	13.081640	3.810538	39.039960	52.195240	-13.723960	-11.616320	-15.125530	0.000000	0.000000	0.000000	0.000000	0.000000	0.000000	0.000000	0.000000	0.000000	0.000000	0.000000	0.000000	0.000000	0.000000	0.000000	0.000000	0.000000	0.000000	0.000000	0.000000	0.000000	0.000000	0.000000	0.000000	0.000000	0.000000	0.000000	0.000000	0.000000	0.000000	0.000000	0.000000	0.000000	0.000000	0.000000	0.000000	0.000000	0.000000	0.000000	0.000000	0.000000	0.000000	0.000000	0.000000	0.000000	0.000000	0.000000	0.000000	-7.680549	0.217919	-12.204600	23.786950	-1.108678	0.391983	3.863014	0.375803	0.158187	-2.028125	0.000000	0.000000	-3.249533	1.884025	-2.475302	23.898240	2.141469	-0.844180	-7.076286	-0.616203	-0.339913	-1.609961	0.000000	0.000000
	2.2495	78.6963	16.1185	-1.214449	-10.388970	-0.330537	0.000000	0.000000	0.000000	2.597748	0.441664	0.086587	8.658127	1.484170	0.210210	0.000000	0.000000	0.000000	0.000000	0.000000	0.000000	0.000000	0.000000	-11.438610	73.440180	-61.893240	13.468540	43.642660	-46.940150	-0.541204	0.000000	0.000000	0.000000	0.000000	0.000000	0.000000	0.000000	0.000000	0.000000	0.000000	0.000000	0.000000	0.000000	0.000000	0.000000	0.000000	0.000000	0.000000	0.000000	0.000000	0.000000	0.000000	0.000000	0.000000	0.000000	0.000000	0.000000	0.000000	0.000000	0.000000	0.000000	0.000000	0.000000	0.000000	0.000000	0.000000	0.000000	0.000000	0.000000	0.000000	0.000000	0.000000	0.000000	0.000000	0.000000	0.000000	0.000000	0.000000	0.000000	0.000000	13.007970	4.132961	38.687340	51.599080	-12.621200	-12.664870	-13.860500	0.000000	0.000000	0.000000	0.000000	0.000000	0.000000	0.000000	0.000000	0.000000	0.000000	0.000000	0.000000	0.000000	0.000000	0.000000	0.000000	0.000000	0.000000	0.000000	0.000000	0.000000	0.000000	0.000000	0.000000	0.000000	0.000000	0.000000	0.000000	0.000000	0.000000	0.000000	0.000000	0.000000	0.000000	0.000000	0.000000	0.000000	0.000000	0.000000	0.000000	0.000000	0.000000	0.000000	0.000000	0.000000	0.000000	0.000000	0.000000	-7.327735	0.008870	-13.760520	23.497560	-1.347619	0.488000	4.574510	0.851315	0.369798	-1.002344	0.000000	0.000000	-4.361107	1.656778	-2.779308	26.046480	1.933315	-0.816636	-6.235694	0.303916	0.172125	-3.256250	0.000000	0.000000
	2.4914	78.6040	16.2519	-1.345170	-8.663942	-0.087668	0.000000	0.000000	0.000000	2.524599	0.548780	0.046821	8.415910	1.833380	0.061666	0.000000	0.000000	0.000000	0.000000	0.000000	0.000000	0.000000	0.000000	-11.302110	77.735730	-62.654510	18.717020	44.469260	-46.841170	-0.538208	0.000000	0.000000	0.000000	0.000000	0.000000	0.000000	0.000000	0.000000	0.000000	0.000000	0.000000	0.000000	0.000000	0.000000	0.000000	0.000000	0.000000	0.000000	0.000000	0.000000	0.000000	0.000000	0.000000	0.000000	0.000000	0.000000	0.000000	0.000000	0.000000	0.000000	0.000000	0.000000	0.000000	0.000000	0.000000	0.000000	0.000000	0.000000	0.000000	0.000000	0.000000	0.000000	0.000000	0.000000	0.000000	0.000000	0.000000	0.000000	0.000000	0.000000	12.898730	4.836429	37.917820	50.584620	-10.256780	-14.977330	-11.125750	0.000000	0.000000	0.000000	0.000000	0.000000	0.000000	0.000000	0.000000	0.000000	0.000000	0.000000	0.000000	0.000000	0.000000	0.000000	0.000000	0.000000	0.000000	0.000000	0.000000	0.000000	0.000000	0.000000	0.000000	0.000000	0.000000	0.000000	0.000000	0.000000	0.000000	0.000000	0.000000	0.000000	0.000000	0.000000	0.000000	0.000000	0.000000	0.000000	0.000000	0.000000	0.000000	0.000000	0.000000	0.000000	0.000000	0.000000	0.000000	-6.140676	-0.242420	-15.481680	21.631590	-1.494567	0.513574	4.922122	1.593430	0.686061	-0.453907	0.000000	0.000000	-5.096637	1.371487	-3.198478	27.619480	1.665350	-0.727062	-5.631155	0.244174	0.129920	-4.345703	0.000000	0.000000
